<svg id="Layer_1" data-name="Layer 1" xmlns="http://www.w3.org/2000/svg" viewBox="0 0 71.97 12.39"><defs><style>.cls-1{fill:#fff;}</style></defs><title>logo_toyota</title><path class="cls-1" d="M21.16,3.61h2.69v6.92h1.89V3.61h2.68V2H21.16V3.61ZM63,2H55.75V3.61h2.69v6.92h1.89V3.61H63V2ZM44.39,2l-2.2,3.47L40,2H37.84l3.4,5.37v3.19h1.89V7.33L46.54,2H44.39ZM33.3,1.67a4.52,4.52,0,1,0,4.49,4.52A4.5,4.5,0,0,0,33.3,1.67ZM33.3,9a2.7,2.7,0,0,1-2.53-2.84A2.7,2.7,0,0,1,33.3,3.35a2.7,2.7,0,0,1,2.53,2.85A2.7,2.7,0,0,1,33.3,9ZM51,1.67a4.52,4.52,0,1,0,4.49,4.52A4.51,4.51,0,0,0,51,1.67ZM51,9a2.7,2.7,0,0,1-2.53-2.84,2.55,2.55,0,1,1,5.07,0A2.7,2.7,0,0,1,51,9ZM68.5,2H66l-3.47,8.57H64.7l0.79-2.09H69l0.79,2.09H72Zm-2.43,5,1.2-3.16,1.19,3.16H66.07Z"/><path class="cls-1" d="M14.56,0.91A12.29,12.29,0,0,0,10,0H8.92A12.27,12.27,0,0,0,4.28.92C1.62,2,0,3.91,0,6.09c0,3.54,4,6.3,9.44,6.3s9.44-2.76,9.44-6.3C18.87,3.9,17.24,2,14.56.91ZM14.9,2.67c0,1-1.52,1.63-3.3,1.92C11.32,2,10.43.74,9.45,0.74S7.57,2,7.29,4.59C5.5,4.31,4,3.67,4,2.67c0-.58.72-1.08,1.78-1.43A12.51,12.51,0,0,1,9,.7h1.21l0.36,0h0a12.35,12.35,0,0,1,2.48.48C14.15,1.57,14.9,2.08,14.9,2.67Zm-4,3.49c0,2.32-.79,3.52-1.46,3.52S8,8.48,8,6.16v0c0.46,0,.94.06,1.44,0.06s1,0,1.47-.06v0ZM9.43,4.75c-0.44,0-.89,0-1.35-0.06C8.33,3,9,2.23,9.45,2.23S10.56,3,10.81,4.69C10.35,4.73,9.88,4.75,9.43,4.75Zm-8.12,1A3.73,3.73,0,0,1,2.39,3.18C2.51,4.54,4.41,5.66,7.2,6c0,0.11,0,.21,0,0.32,0,3.4,1,5.13,2,5.34C5.54,11.63,1.31,9.48,1.31,5.77Zm8.36,5.95c1.06-.21,2-1.95,2-5.34,0-.11,0-0.22,0-0.33,2.78-.39,4.67-1.5,4.78-2.86a3.74,3.74,0,0,1,1.08,2.59C17.56,9.48,13.35,11.62,9.67,11.71Z"/></svg>